<?xml version="1.0" encoding="utf-8"?>
<!-- Generator: Adobe Illustrator 16.0.0, SVG Export Plug-In . SVG Version: 6.00 Build 0)  -->
<!DOCTYPE svg PUBLIC "-//W3C//DTD SVG 1.1//EN" "http://www.w3.org/Graphics/SVG/1.1/DTD/svg11.dtd">
<svg version="1.1"
	 id="svg4429" xmlns:svg="http://www.w3.org/2000/svg" inkscape:version="0.48.1 " sodipodi:docname="Stanford school of medicine.svg" xmlns:cc="http://creativecommons.org/ns#" xmlns:sodipodi="http://sodipodi.sourceforge.net/DTD/sodipodi-0.dtd" xmlns:rdf="http://www.w3.org/1999/02/22-rdf-syntax-ns#" xmlns:dc="http://purl.org/dc/elements/1.1/" xmlns:inkscape="http://www.inkscape.org/namespaces/inkscape"
	 xmlns="http://www.w3.org/2000/svg" xmlns:xlink="http://www.w3.org/1999/xlink" x="0px" y="0px" width="586.442px" height="189px"
	 viewBox="-690.664 -42 586.442 189" enable-background="new -690.664 -42 586.442 189" xml:space="preserve">
<sodipodi:namedview  id="base" inkscape:pageshadow="2" inkscape:window-x="-4" inkscape:document-units="px" fit-margin-right="0" inkscape:window-y="-4" inkscape:window-maximized="1" inkscape:window-height="721" inkscape:current-layer="layer1" inkscape:pageopacity="0.0" fit-margin-bottom="0" inkscape:window-width="1024" fit-margin-left="0" pagecolor="#ffffff" inkscape:cx="235.90951" bordercolor="#666666" showgrid="false" inkscape:cy="56.1151" borderopacity="1.0" inkscape:zoom="1" fit-margin-top="0">
	</sodipodi:namedview>
<path fill="#64B056" d="M-200.143,141.93c-0.405-0.201-0.857-0.24-1.287-0.355c-3.422-0.912-5.839-4.215-5.602-7.803
	c0.28-4.234,3.483-6.617,6.361-7.105c3.903-0.666,7.767,1.869,8.706,5.746c0.958,3.959-1.444,8.088-5.374,9.158
	c-0.428,0.117-0.881,0.148-1.283,0.359C-199.128,141.93-199.635,141.93-200.143,141.93z"/>
<path fill="#64B056" d="M-198.283-37c0.241,0.249,0.581,0.166,0.871,0.246c3.394,0.931,5.298,3.888,5.603,6.503
	c0.45,3.838-2.135,7.766-6.339,8.418c-4.827,0.749-8.22-2.729-8.802-6.346c-0.635-3.957,2.094-8.017,6.173-8.681
	c0.114-0.019,0.217-0.05,0.295-0.141C-199.749-37-199.016-37-198.283-37z"/>
<path fill="#64B056" d="M-119.134,33.354c-0.285,0.263-0.154,0.638-0.25,0.954c-1.009,3.32-4.427,5.593-7.964,5.274
	c-3.583-0.324-6.452-3.181-6.881-6.704c-0.478-3.927,2.231-7.623,6.088-8.395c3.687-0.738,7.542,1.467,8.715,5.041
	c0.123,0.374,0.013,0.799,0.292,1.125C-119.134,31.551-119.134,32.452-119.134,33.354z"/>
<path fill="#64B056" d="M-119.134,12.891c-0.279,0.266-0.151,0.64-0.246,0.957c-0.998,3.347-4.415,5.599-8.039,5.277
	c-3.511-0.311-6.395-3.194-6.804-6.682c-0.503-4.287,2.555-7.777,6.235-8.437c3.649-0.655,7.478,1.6,8.585,5.137
	c0.109,0.345-0.011,0.745,0.268,1.041C-119.134,11.086-119.134,11.989-119.134,12.891z"/>
<path fill="#64B056" d="M-119.134,53.817c-0.283,0.348-0.178,0.801-0.336,1.192c-1.197,2.957-3.371,4.707-6.531,4.994
	c-2.982,0.271-5.415-0.922-7.053-3.449c-2.979-4.591-0.345-10.69,5.053-11.634c4.204-0.735,7.397,1.81,8.537,4.926
	c0.133,0.363,0.035,0.791,0.331,1.096C-119.134,51.901-119.134,52.86-119.134,53.817z"/>
<path fill="#64B056" d="M-119.134,74.281c-0.285,0.346-0.182,0.797-0.339,1.188c-1.031,2.561-2.857,4.223-5.545,4.842
	c-3.9,0.898-7.839-1.459-8.967-5.303c-1.454-4.957,2.345-9.914,7.511-9.74c3.314,0.111,5.578,1.805,6.926,4.803
	c0.195,0.436,0.119,0.941,0.414,1.336C-119.134,72.365-119.134,73.324-119.134,74.281z"/>
<path fill="#64B056" d="M-119.134,94.746c-0.292,0.252-0.164,0.627-0.268,0.939c-1.104,3.328-4.278,5.479-7.723,5.238
	c-4.311-0.303-6.718-3.668-7.1-6.643c-0.488-3.803,2.02-7.551,5.923-8.424c3.707-0.83,7.595,1.318,8.85,4.91
	c0.128,0.365,0.022,0.791,0.318,1.102C-119.134,92.828-119.134,93.787-119.134,94.746z"/>
<path fill="#64B056" d="M-209.957,1.332c0.027,3.691-2.852,7.605-7.653,7.592c-4.866-0.013-7.62-4.069-7.605-7.65
	c0.015-3.652,2.87-7.611,7.662-7.594C-212.844-6.303-209.912-2.449-209.957,1.332z"/>
<path fill="#64B056" d="M-246.323,1.279c0.039,3.774-2.879,7.674-7.686,7.645c-4.821-0.031-7.562-4.052-7.573-7.596
	c-0.012-3.617,2.794-7.642,7.608-7.646C-249.174-6.322-246.308-2.432-246.323,1.279z"/>
<path fill="#64B056" d="M-137.22,1.313c0.03,3.757-2.892,7.619-7.633,7.611c-4.817-0.009-7.628-3.978-7.624-7.631
	c0.005-3.668,2.845-7.615,7.644-7.613C-140.128-6.318-137.181-2.467-137.22,1.313z"/>
<path fill="#64B056" d="M-173.595-19.067c0.034,3.601-2.813,7.539-7.609,7.546c-4.808,0.006-7.698-3.984-7.632-7.697
	c0.073-4.171,3.422-7.588,7.615-7.555C-176.413-26.733-173.493-22.788-173.595-19.067z"/>
<path fill="#64B056" d="M-188.825,1.309c-0.102-3.523,2.673-7.579,7.522-7.627c4.929-0.048,7.726,4.007,7.723,7.617
	c-0.005,3.695-2.853,7.673-7.713,7.624C-186.169,8.874-188.92,4.82-188.825,1.309z"/>
<path fill="#64B056" d="M-163.042,24.363c4.242-0.006,7.597,3.327,7.646,7.597c0.049,4.166-3.413,7.644-7.619,7.645
	c-3.973,0-7.6-3.086-7.644-7.618C-170.698,27.761-167.27,24.369-163.042,24.363z"/>
<path fill="#64B056" d="M-209.957-19.128c0.009,3.903-3.041,7.621-7.639,7.608c-4.774-0.015-7.622-3.965-7.621-7.636
	c0.002-3.535,2.757-7.612,7.649-7.606C-212.893-26.756-209.917-22.94-209.957-19.128z"/>
<path fill="#64B056" d="M-217.57,90.701c-4.235,0.012-7.621-3.367-7.624-7.604c-0.001-4.242,3.375-7.631,7.603-7.629
	c4.233,0,7.628,3.385,7.634,7.609C-209.952,87.307-213.332,90.691-217.57,90.701z"/>
<path fill="#64B056" d="M-163.049-1.309c-3.563,0.094-7.609-2.756-7.598-7.631c0.013-4.829,4.022-7.647,7.64-7.604
	c4.216,0.049,7.64,3.447,7.612,7.646C-155.423-4.66-158.807-1.306-163.049-1.309z"/>
<path fill="#64B056" d="M-144.832,95.914c4.23,0.006,7.617,3.402,7.61,7.631c-0.007,4.227-3.407,7.615-7.635,7.609
	c-4.227-0.006-7.613-3.404-7.607-7.633C-152.457,99.289-149.067,95.91-144.832,95.914z"/>
<path fill="#64B056" d="M-264.538,93.299c0.161,3.592-2.797,7.635-7.672,7.643c-4.16,0.008-7.557-3.455-7.56-7.617
	c-0.004-4.201,3.443-7.67,7.62-7.643C-267.39,85.715-264.391,89.688-264.538,93.299z"/>
<path fill="#64B056" d="M-188.825,83.02c0.018-4.221,3.427-7.574,7.68-7.551c4.212,0.02,7.569,3.438,7.55,7.686
	c-0.019,4.219-3.431,7.559-7.684,7.553C-185.487,90.699-188.927,87.154-188.825,83.02z"/>
<path fill="#64B056" d="M-228.157-8.933c0.007,4.248-3.356,7.624-7.598,7.624c-4.234,0-7.645-3.386-7.653-7.597
	c-0.009-4.202,3.417-7.629,7.627-7.629C-231.532-16.534-228.164-13.176-228.157-8.933z"/>
<path fill="#64B056" d="M-163.029,3.914c4.232,0.001,7.617,3.377,7.635,7.613c0.017,4.192-3.416,7.608-7.635,7.627
	c-3.797,0.018-7.586-2.946-7.628-7.627C-170.696,7.307-167.254,3.913-163.029,3.914z"/>
<path fill="#64B056" d="M-144.886,29.353c-4.243-0.016-7.574-3.395-7.582-7.646c-0.007-3.756,2.95-7.611,7.666-7.579
	c4.781,0.033,7.625,3.957,7.588,7.662C-137.257,26.022-140.629,29.367-144.886,29.353z"/>
<path fill="#64B056" d="M-228.157,11.564c-0.022,4.244-3.406,7.6-7.648,7.588c-4.2-0.013-7.626-3.465-7.603-7.663
	c0.023-4.24,3.479-7.612,7.762-7.576C-231.464,3.95-228.134,7.353-228.157,11.564z"/>
<path fill="#64B056" d="M-225.193,123.932c0.016-4.23,3.414-7.586,7.662-7.564c4.228,0.021,7.594,3.424,7.575,7.662
	c-0.019,4.209-3.444,7.594-7.673,7.58C-221.839,131.594-225.208,128.174-225.193,123.932z"/>
<path fill="#64B056" d="M-188.825,103.502c0.008-4.23,3.403-7.6,7.646-7.586c4.228,0.014,7.592,3.406,7.584,7.65
	c-0.007,4.221-3.415,7.598-7.649,7.59C-185.663,111.148-188.925,107.441-188.825,103.502z"/>
<path fill="#64B056" d="M-217.689,29.353c-4.162,0.027-7.614-3.554-7.519-7.799c0.082-3.655,3.016-7.451,7.734-7.438
	c4.203,0.01,7.554,3.506,7.516,7.74C-209.995,26.066-213.434,29.399-217.689,29.353z"/>
<path fill="#64B056" d="M-181.22,29.353c-4.255-0.006-7.578-3.359-7.613-7.613c-0.031-3.779,2.958-7.623,7.628-7.614
	c4.772,0.01,7.648,3.939,7.618,7.63C-173.622,25.999-176.968,29.358-181.22,29.353z"/>
<path fill="#64B056" d="M-181.202,70.242c-3.998,0.119-7.652-3.275-7.628-7.592c0.024-4.235,3.386-7.632,7.608-7.637
	c4.221-0.003,7.611,3.396,7.631,7.616C-173.569,67.049-177.309,70.363-181.202,70.242z"/>
<path fill="#64B056" d="M-191.794,31.995c-0.011,4.233-3.412,7.628-7.626,7.61c-3.892-0.017-7.613-3.026-7.6-7.653
	c0.015-4.745,3.94-7.648,7.645-7.6C-195.126,24.408-191.782,27.736-191.794,31.995z"/>
<path fill="#64B056" d="M-191.794-8.902c-0.008,4.255-3.363,7.56-7.622,7.604c-3.583,0.038-7.616-2.774-7.602-7.639
	c0.015-4.902,4.077-7.625,7.638-7.615C-195.386-16.54-191.715-13.247-191.794-8.902z"/>
<path fill="#64B056" d="M-264.538,11.597c0.099,3.791-3.112,7.584-7.67,7.555c-4.195-0.028-7.59-3.48-7.562-7.696
	c0.027-4.203,3.463-7.544,7.704-7.548C-267.917,3.905-264.393,7.433-264.538,11.597z"/>
<path fill="#64B056" d="M-144.879,90.701c-4.23-0.012-7.599-3.412-7.583-7.65c0.016-4.223,3.423-7.6,7.655-7.582
	c4.221,0.014,7.605,3.43,7.587,7.652C-137.239,87.354-140.638,90.715-144.879,90.701z"/>
<path fill="#64B056" d="M-254.003,49.796c-4.296,0.062-7.636-3.656-7.566-7.656c0.074-4.216,3.444-7.598,7.673-7.577
	c4.198,0.021,7.592,3.461,7.571,7.685C-246.346,46.703-250.12,49.94-254.003,49.796z"/>
<path fill="#64B056" d="M-217.554,70.242c-4.039,0.123-7.665-3.301-7.645-7.575c0.02-4.238,3.375-7.645,7.591-7.654
	c4.222-0.008,7.634,3.385,7.651,7.6C-209.937,67.084-213.682,70.346-217.554,70.242z"/>
<path fill="#64B056" d="M-191.794,11.564c-0.017,4.244-3.395,7.589-7.642,7.589c-3.752,0.001-7.606-2.917-7.583-7.664
	c0.024-4.795,3.986-7.611,7.657-7.592C-195.349,3.917-191.704,7.238-191.794,11.564z"/>
<path fill="#64B056" d="M-264.538,52.476c0.117,3.673-2.966,7.578-7.655,7.574c-4.195-0.005-7.621-3.48-7.572-7.685
	c0.051-4.513,3.806-7.608,7.683-7.571C-267.812,44.834-264.394,48.426-264.538,52.476z"/>
<path fill="#64B056" d="M-144.866,49.795c-3.986,0.099-7.626-3.271-7.6-7.623c0.025-4.217,3.425-7.617,7.645-7.609
	c4.205,0.006,7.61,3.434,7.602,7.652C-137.229,46.688-140.989,49.923-144.866,49.795z"/>
<path fill="#64B056" d="M-264.538,32.018c0.122,3.729-3.039,7.599-7.643,7.585c-4.202-0.014-7.632-3.469-7.584-7.672
	c0.051-4.482,3.734-7.601,7.673-7.585C-268.032,24.361-264.408,27.778-264.538,32.018z"/>
<path fill="#64B056" d="M-228.157,52.432c-0.005,4.227-3.408,7.627-7.625,7.621c-4.194-0.004-7.661-3.451-7.619-7.646
	c0.046-4.58,3.812-7.659,7.646-7.607C-231.5,44.859-228.152,48.178-228.157,52.432z"/>
<path fill="#64B056" d="M-163.004,44.812c4.27,0.013,7.65,3.441,7.61,7.717c-0.039,4.145-3.488,7.551-7.659,7.52
	c-4.146-0.031-7.556-3.266-7.604-7.568C-170.705,48.198-167.272,44.799-163.004,44.812z"/>
<path fill="#64B056" d="M-261.556,83.098c-0.109-3.941,3.209-7.646,7.597-7.633c4.23,0.014,7.635,3.396,7.635,7.613
	c0.001,4.227-3.385,7.617-7.616,7.623C-258.18,90.709-261.554,87.34-261.556,83.098z"/>
<path fill="#64B056" d="M-173.595,123.979c0.004,4.223-3.391,7.625-7.615,7.631c-4.22,0.002-7.614-3.395-7.615-7.625
	c-0.001-4.242,3.37-7.615,7.609-7.619C-176.978,116.363-173.599,119.74-173.595,123.979z"/>
<path fill="#64B056" d="M-225.193,103.48c0.015-4.225,3.422-7.586,7.667-7.564c4.217,0.021,7.589,3.438,7.57,7.672
	c-0.018,4.209-3.44,7.582-7.675,7.566C-221.853,111.139-225.208,107.732-225.193,103.48z"/>
<path fill="#64B056" d="M-254.017,29.353c-4.33,0.035-7.642-3.698-7.56-7.758c0.072-3.618,2.954-7.473,7.696-7.479
	c4.206-0.004,7.576,3.478,7.557,7.702C-246.344,26.026-249.769,29.382-254.017,29.353z"/>
<path fill="#64B056" d="M-264.539,72.822c0.164,3.676-2.837,7.607-7.555,7.672c-4.203,0.059-7.66-3.393-7.676-7.584
	c-0.017-4.256,3.41-7.654,7.673-7.66C-267.723,65.242-264.418,68.969-264.539,72.822z"/>
<path fill="#64B056" d="M-144.831,70.242c-3.966,0.123-7.648-3.238-7.635-7.59c0.013-4.228,3.394-7.634,7.61-7.639
	c4.22-0.004,7.626,3.396,7.636,7.613C-137.209,67.145-141.018,70.365-144.831,70.242z"/>
<path fill="#64B056" d="M-228.156,93.307c0.004,4.223-3.403,7.646-7.606,7.645c-4.19-0.002-7.641-3.447-7.646-7.637
	c-0.004-4.186,3.472-7.662,7.636-7.637C-231.515,85.705-228.159,89.066-228.156,93.307z"/>
<path fill="#64B056" d="M-228.157,31.996c-0.01,4.228-3.418,7.624-7.634,7.609c-4.199-0.015-7.63-3.462-7.617-7.655
	c0.013-4.208,3.433-7.593,7.664-7.587C-231.504,24.371-228.147,27.746-228.157,31.996z"/>
<path fill="#64B056" d="M-155.425,72.572c0.209,3.723-2.567,7.604-7.141,7.906c-4.11,0.271-7.841-2.775-8.08-7.232
	c-0.232-4.365,3.126-7.609,6.816-7.959C-158.925,64.822-155.448,68.711-155.425,72.572z"/>
<path fill="#64B056" d="M-217.489,49.796c-4.189,0.14-7.669-3.371-7.718-7.51c-0.048-3.972,3.101-7.652,7.536-7.717
	c4.226-0.062,7.681,3.337,7.715,7.535C-209.923,46.354-213.266,49.768-217.489,49.796z"/>
<path fill="#64B056" d="M-191.793,52.398c0.008,4.234-3.375,7.658-7.584,7.653c-4.006-0.004-7.632-3.08-7.643-7.609
	c-0.011-4.748,3.918-7.68,7.6-7.643C-195.16,44.844-191.802,48.144-191.793,52.398z"/>
<path fill="#64B056" d="M-181.214,49.796c-4.177,0.099-7.654-3.471-7.619-7.604c0.037-4.228,3.403-7.629,7.622-7.629
	c4.213,0.001,7.604,3.414,7.621,7.631C-173.573,46.589-177.3,49.92-181.214,49.796z"/>
<path fill="#64B056" d="M-253.971,95.916c4.231-0.006,7.643,3.383,7.647,7.596c0.006,4.227-3.384,7.635-7.604,7.643
	c-4.237,0.01-7.579-3.363-7.641-7.598C-261.626,99.561-258.284,95.883-253.971,95.916z"/>
<path fill="#64B056" d="M-228.156,113.744c0.062,4.371-3.653,7.637-7.599,7.637c-3.752,0-7.599-2.955-7.645-7.615
	c-0.041-4.193,3.427-7.639,7.62-7.646C-231.57,106.111-228.167,109.516-228.156,113.744z"/>
<path fill="#64B056" d="M-191.793,93.289c0.099,3.811-2.941,7.594-7.583,7.652c-4.186,0.057-7.664-3.396-7.653-7.607
	c0.011-4.361,3.468-7.619,7.609-7.654C-195.215,85.645-191.805,89.055-191.793,93.289z"/>
<path fill="#64B056" d="M-253.961,70.242c-3.925,0.123-7.61-3.256-7.614-7.615c-0.003-3.837,3.096-7.603,7.638-7.612
	c4.203-0.01,7.616,3.422,7.614,7.637C-246.324,67.039-250.005,70.357-253.961,70.242z"/>
<path fill="#64B056" d="M-199.414,65.256c4.245-0.072,7.668,3.512,7.63,7.596c-0.039,4.23-3.39,7.67-7.601,7.646
	c-4.229-0.027-7.635-3.301-7.638-7.617C-207.026,68.334-203.329,65.201-199.414,65.256z"/>
<path fill="#64B056" d="M-163.071,121.355c-3.727,0.096-7.566-2.953-7.59-7.645c-0.021-4.174,3.48-7.611,7.673-7.592
	c4.162,0.02,7.599,3.441,7.587,7.592C-155.416,118.428-159.309,121.496-163.071,121.355z"/>
<path fill="#E21A2D" d="M-228.144,72.855c-0.011,4.225-3.424,7.635-7.632,7.633c-4.191-0.006-7.633-3.455-7.631-7.648
	c0.002-4.189,3.45-7.631,7.649-7.635C-231.563,65.203-228.132,68.648-228.144,72.855z"/>
<path fill="#64B056" d="M-191.793,113.744c0.086,4.25-3.535,7.633-7.593,7.635c-3.774,0.002-7.617-2.959-7.637-7.613
	c-0.018-4.32,3.433-7.621,7.612-7.641C-195.182,106.105-191.8,109.51-191.793,113.744z"/>
<path fill="#64B056" d="M-155.412,93.191c0.112,4.203-3.292,7.732-7.583,7.746c-4.176,0.016-7.577-3.203-7.659-7.506
	c-0.081-4.191,3.192-7.645,7.503-7.752C-158.969,85.578-155.525,88.93-155.412,93.191z"/>
<g>
	<path fill="#34495E" d="M-681.71,27.283h37.825v6.63h-30.685v18.87h28.645v6.63h-28.645v21.42h32.215v6.629h-39.355V27.283z"/>
	<path fill="#34495E" d="M-631.307,27.283h10.625l20.4,47.176h0.17l20.57-47.176h10.37v60.18h-7.14v-50.49h-0.17l-21.59,50.49
		h-4.335l-21.59-50.49h-0.17v50.49h-7.14V27.283z"/>
	<path fill="#34495E" d="M-554.212,27.283h18.36c2.493,0,4.93,0.255,7.31,0.765c2.38,0.51,4.505,1.347,6.375,2.507
		c1.87,1.162,3.385,2.678,4.547,4.548c1.161,1.87,1.743,4.194,1.743,6.97c0,3.514-0.95,6.417-2.848,8.712
		c-1.899,2.295-4.462,3.925-7.692,4.888v0.17c1.926,0.17,3.726,0.667,5.397,1.488c1.671,0.822,3.116,1.884,4.335,3.188
		c1.218,1.304,2.167,2.819,2.848,4.548s1.02,3.584,1.02,5.566c0,3.345-0.695,6.093-2.083,8.246c-1.389,2.154-3.202,3.867-5.44,5.143
		c-2.239,1.274-4.76,2.167-7.565,2.677c-2.805,0.511-5.597,0.765-8.373,0.765h-17.935V27.283z M-547.072,52.783h9.86
		c1.7,0,3.357-0.113,4.973-0.34c1.615-0.226,3.073-0.693,4.377-1.402c1.303-0.708,2.351-1.7,3.145-2.975
		c0.793-1.275,1.19-2.96,1.19-5.058c0-1.87-0.369-3.385-1.105-4.547c-0.737-1.161-1.715-2.083-2.933-2.763
		c-1.219-0.68-2.607-1.147-4.165-1.402c-1.559-0.255-3.132-0.382-4.717-0.382h-10.625V52.783z M-547.072,80.834h12.07
		c1.756,0,3.499-0.184,5.228-0.553c1.728-0.368,3.286-0.963,4.675-1.785c1.388-0.82,2.508-1.898,3.358-3.23
		c0.85-1.33,1.275-2.96,1.275-4.887c0-2.096-0.412-3.854-1.232-5.271c-0.822-1.416-1.899-2.55-3.23-3.4
		c-1.333-0.85-2.862-1.445-4.59-1.785c-1.729-0.34-3.5-0.51-5.312-0.51h-12.24V80.834z"/>
	<path fill="#34495E" d="M-500.663,27.283h7.14v53.551h27.54v6.629h-34.68V27.283z"/>
	<path fill="#34495E" d="M-461.902,54.004h20.825v6.119h-20.825V54.004z"/>
	<path fill="#34495E" d="M-429.858,27.283h37.825v6.63h-30.685v18.87h28.645v6.63h-28.645v21.42h32.215v6.629h-39.355V27.283z"/>
	<path fill="#34495E" d="M-379.454,27.283h18.36c2.493,0,4.93,0.255,7.31,0.765c2.38,0.51,4.505,1.347,6.375,2.507
		c1.87,1.162,3.385,2.678,4.547,4.548c1.161,1.87,1.743,4.194,1.743,6.97c0,3.514-0.95,6.417-2.848,8.712
		c-1.899,2.295-4.462,3.925-7.692,4.888v0.17c1.926,0.17,3.726,0.667,5.397,1.488c1.671,0.822,3.116,1.884,4.335,3.188
		c1.218,1.304,2.167,2.819,2.848,4.548s1.02,3.584,1.02,5.566c0,3.345-0.695,6.093-2.083,8.246c-1.389,2.154-3.202,3.867-5.44,5.143
		c-2.239,1.274-4.76,2.167-7.565,2.677c-2.805,0.511-5.597,0.765-8.373,0.765h-17.935V27.283z M-372.314,52.783h9.86
		c1.7,0,3.357-0.113,4.973-0.34c1.615-0.226,3.073-0.693,4.377-1.402c1.303-0.708,2.351-1.7,3.145-2.975
		c0.793-1.275,1.19-2.96,1.19-5.058c0-1.87-0.369-3.385-1.105-4.547c-0.737-1.161-1.715-2.083-2.933-2.763
		c-1.219-0.68-2.607-1.147-4.165-1.402c-1.559-0.255-3.132-0.382-4.717-0.382h-10.625V52.783z M-372.314,80.834h12.07
		c1.756,0,3.499-0.184,5.228-0.553c1.728-0.368,3.286-0.963,4.675-1.785c1.388-0.82,2.508-1.898,3.358-3.23
		c0.85-1.33,1.275-2.96,1.275-4.887c0-2.096-0.412-3.854-1.232-5.271c-0.822-1.416-1.899-2.55-3.23-3.4
		c-1.333-0.85-2.862-1.445-4.59-1.785c-1.729-0.34-3.5-0.51-5.312-0.51h-12.24V80.834z"/>
	<path fill="#34495E" d="M-325.905,27.283h7.14v60.18h-7.14V27.283z"/>
</g>
</svg>
