<?xml version="1.0" encoding="UTF-8" standalone="no"?>
<svg
   xmlns:dc="http://purl.org/dc/elements/1.1/"
   xmlns:cc="http://creativecommons.org/ns#"
   xmlns:rdf="http://www.w3.org/1999/02/22-rdf-syntax-ns#"
   xmlns:svg="http://www.w3.org/2000/svg"
   xmlns="http://www.w3.org/2000/svg"
   xmlns:sodipodi="http://sodipodi.sourceforge.net/DTD/sodipodi-0.dtd"
   xmlns:inkscape="http://www.inkscape.org/namespaces/inkscape"
   inkscape:version="1.0beta2 (2b71d25, 2019-12-03)"
   sodipodi:docname="mutfunc_logo.svg"
   xml:space="preserve"
   enable-background="new 0 0 374.5 54"
   viewBox="0 0 624 54"
   height="54"
   width="624"
   y="0px"
   x="0px"
   id="Layer_1"
   version="1.1"><metadata
   id="metadata989"><rdf:RDF><cc:Work
       rdf:about=""><dc:format>image/svg+xml</dc:format><dc:type
         rdf:resource="http://purl.org/dc/dcmitype/StillImage" /><dc:title></dc:title></cc:Work></rdf:RDF></metadata><defs
   id="defs987" /><sodipodi:namedview
   inkscape:current-layer="Layer_1"
   inkscape:window-maximized="0"
   inkscape:window-y="45"
   inkscape:window-x="60"
   inkscape:cy="41.721219"
   inkscape:cx="329.5265"
   inkscape:zoom="1.9183458"
   inkscape:snap-nodes="false"
   showgrid="false"
   id="namedview985"
   inkscape:window-height="924"
   inkscape:window-width="1860"
   inkscape:pageshadow="2"
   inkscape:pageopacity="0"
   guidetolerance="10"
   gridtolerance="10"
   objecttolerance="10"
   borderopacity="1"
   inkscape:document-rotation="0"
   bordercolor="#666666"
   pagecolor="#ffffff" />
<g
   id="g944">
	<path
   inkscape:connector-curvature="0"
   id="path930"
   d="M 184.955,44.607 V 26.848 c 0,-5.7 -3.84,-9.72 -9.48,-9.72 -5.64,0 -9.54,4.2 -9.54,9.9 v 17.579 h -2.94 V 27.028 c 0,-5.7 -3.899,-9.84 -9.54,-9.84 -5.64,0 -9.479,4.14 -9.479,9.84 v 17.579 h -2.94 V 14.968 h 2.76 l 0.06,4.92 c 2.04,-3.9 5.82,-5.52 9.66,-5.52 4.5,0 9.24,2.04 10.979,7.32 1.8,-4.86 6.42,-7.32 10.979,-7.32 7.26,0 12.42,5.1 12.42,12.479 v 17.759 h -2.939 z"
   fill="#414042" />
	<path
   inkscape:connector-curvature="0"
   id="path932"
   d="m 218.795,44.607 v -5.34 c -2.28,4.08 -6.419,5.76 -10.56,5.82 -7.919,0 -13.379,-4.86 -13.379,-13.08 V 14.908 h 2.94 v 17.039 c 0,6.72 4.14,10.32 10.56,10.26 6.12,-0.06 10.38,-4.68 10.38,-10.799 v -16.5 h 2.939 v 29.699 z"
   fill="#414042" />
	<path
   inkscape:connector-curvature="0"
   id="path934"
   d="m 236.195,6.028 v 8.94 h 10.08 v 2.46 h -10.08 v 18.059 c 0,4.02 0.84,6.84 5.46,6.84 1.44,0 3.06,-0.48 4.56,-1.2 l 1.02,2.4 c -1.86,0.9 -3.72,1.5 -5.58,1.5 -6.3,0 -8.34,-3.72 -8.34,-9.54 V 17.428 h -6.3 v -2.46 h 6.3 v -8.64 z"
   fill="#414042" />
	<path
   inkscape:connector-curvature="0"
   id="path936"
   d="M 254.556,44.607 V 21.868 h -5.52 v -6.419 h 5.52 v -1.98 c 0,-7.92 5.34,-11.58 11.279,-11.58 2.58,0 5.28,0.84 7.68,2.4 l -2.7,5.46 c -1.56,-1.02 -3,-1.56 -4.5,-1.56 -2.52,0 -4.44,1.68 -4.44,5.28 v 1.98 h 8.7 v 6.419 h -8.7 v 22.739 z"
   fill="#414042" />
	<path
   inkscape:connector-curvature="0"
   id="path938"
   d="m 282.575,15.028 v 15.479 c 0,4.5 2.46,7.92 7.14,7.92 4.5,0 7.56,-3.78 7.56,-8.28 V 15.028 h 7.26 v 29.639 h -6.541 l -0.48,-4.02 c -3.06,3 -5.88,4.44 -10.02,4.44 -7.08,0 -12.239,-5.34 -12.239,-14.52 V 15.028 Z"
   fill="#414042" />
	<path
   inkscape:connector-curvature="0"
   id="path940"
   d="m 332.795,44.607 v -15.48 c 0,-4.5 -2.46,-7.919 -7.14,-7.919 -4.5,0 -7.56,3.78 -7.56,8.28 v 15.119 h -7.26 V 14.968 h 6.539 l 0.48,4.02 c 3,-2.939 6,-4.439 9.72,-4.439 6.959,0 12.539,5.22 12.539,14.519 v 15.54 h -7.318 z"
   fill="#414042" />
	<path
   inkscape:connector-curvature="0"
   id="path942"
   d="m 371.795,40.827 c -3.42,3.36 -7.021,4.68 -11.4,4.68 -8.579,0 -15.719,-5.16 -15.719,-15.659 0,-10.499 7.14,-15.66 15.719,-15.66 4.2,0 7.44,1.2 10.68,4.38 l -4.619,4.86 c -1.74,-1.56 -3.9,-2.34 -5.94,-2.34 -4.92,0 -8.52,3.6 -8.52,8.76 0,5.64 3.84,8.64 8.399,8.64 2.341,0 4.681,-0.66 6.48,-2.46 z"
   fill="#414042" />
</g>
<g
   id="g982">
	<g
   transform="translate(272.48237,1011.2534)"
   id="g64">
		<g
   id="path66">
			<path
   inkscape:connector-curvature="0"
   id="path946"
   d="m -211.431,-974 c 0,1.685 1.366,3.045 3.049,3.045 1.685,0 3.049,-1.36 3.049,-3.045 v -16.852 c 0,-1.682 -1.364,-3.048 -3.049,-3.048 -1.683,0 -3.049,1.366 -3.049,3.048 z"
   fill="#414042" />
		</g>
	</g>
	<g
   transform="translate(272.48237,863.46241)"
   id="g68">
		<g
   id="path70">
			<path
   inkscape:connector-curvature="0"
   id="path950"
   d="m -268.835,-826.209 c 0,1.684 1.366,3.045 3.048,3.045 1.684,0 3.05,-1.361 3.05,-3.045 v -16.852 c 0,-1.683 -1.366,-3.049 -3.05,-3.049 -1.682,0 -3.048,1.366 -3.048,3.049 z"
   fill="#414042" />
		</g>
	</g>
	<g
   transform="translate(285.18547,974.30611)"
   id="g72">
		<g
   id="path74">
			<path
   inkscape:connector-curvature="0"
   id="path954"
   d="m -238.484,-932.118 c 0,1.682 1.364,3.048 3.049,3.048 1.685,0 3.049,-1.366 3.049,-3.048 v -26.719 c 0,-1.688 -1.364,-3.053 -3.049,-3.053 -1.685,0 -3.049,1.366 -3.049,3.053 z"
   fill="#414042" />
		</g>
	</g>
	<g
   transform="translate(285.18547,900.41061)"
   id="g76">
		<g
   id="path78">
			<path
   inkscape:connector-curvature="0"
   id="path958"
   d="m -267.186,-858.223 c 0,1.682 1.367,3.048 3.049,3.048 1.683,0 3.049,-1.366 3.049,-3.048 v -26.719 c 0,-1.688 -1.366,-3.053 -3.049,-3.053 -1.682,0 -3.049,1.366 -3.049,3.053 z"
   fill="#DA1C5C" />
		</g>
	</g>
	<g
   transform="translate(299.74797,937.36081)"
   id="g80">
		<g
   id="path82">
			<path
   inkscape:connector-curvature="0"
   id="path962"
   d="m -267.401,-889.519 c 0,1.688 1.366,3.054 3.051,3.054 1.686,0 3.051,-1.366 3.051,-3.054 v -38.034 c 0,-1.682 -1.366,-3.044 -3.051,-3.044 -1.685,0 -3.051,1.362 -3.051,3.044 z"
   fill="#414042" />
		</g>
	</g>
	<g
   transform="translate(272.48237,1011.2534)"
   id="g64_1_">
		<g
   id="path66_1_">
			<path
   inkscape:connector-curvature="0"
   id="path966"
   d="m -154.027,-974 c 0,1.685 1.366,3.045 3.049,3.045 1.685,0 3.049,-1.36 3.049,-3.045 v -16.852 c 0,-1.682 -1.364,-3.048 -3.049,-3.048 -1.683,0 -3.049,1.366 -3.049,3.048 z"
   fill="#414042" />
		</g>
	</g>
	<g
   transform="translate(285.18547,974.30611)"
   id="g72_1_">
		<g
   id="path74_1_">
			<path
   inkscape:connector-curvature="0"
   id="path970"
   d="m -181.08,-932.118 c 0,1.682 1.364,3.048 3.049,3.048 1.685,0 3.049,-1.366 3.049,-3.048 v -26.719 c 0,-1.688 -1.364,-3.053 -3.049,-3.053 -1.685,0 -3.049,1.366 -3.049,3.053 z"
   fill="#DA1C5C" />
		</g>
	</g>
	<g
   transform="translate(285.18547,900.41061)"
   id="g76_1_">
		<g
   id="path78_1_">
			<path
   inkscape:connector-curvature="0"
   id="path974"
   d="m -209.783,-858.223 c 0,1.682 1.367,3.048 3.049,3.048 1.683,0 3.049,-1.366 3.049,-3.048 v -26.719 c 0,-1.688 -1.366,-3.053 -3.049,-3.053 -1.682,0 -3.049,1.366 -3.049,3.053 z"
   fill="#414042" />
		</g>
	</g>
	<g
   transform="translate(299.74797,937.36081)"
   id="g80_1_">
		<g
   id="path82_1_">
			<path
   inkscape:connector-curvature="0"
   id="path978"
   d="m -209.997,-889.519 c 0,1.688 1.366,3.054 3.05,3.054 1.686,0 3.052,-1.366 3.052,-3.054 v -38.034 c 0,-1.682 -1.366,-3.044 -3.052,-3.044 -1.685,0 -3.05,1.362 -3.05,3.044 z"
   fill="#414042" />
		</g>
	</g>
</g>
<text
   id="text993"
   y="44.30901"
   x="508.25037"
   style="font-size:42.6667px;line-height:1.25;font-family:sans-serif;text-align:center;text-anchor:middle;fill:#414042;fill-opacity:1"
   xml:space="preserve"><tspan
     style="font-style:normal;font-variant:normal;font-weight:normal;font-stretch:normal;font-family:'Avenir Next';-inkscape-font-specification:'Avenir Next'"
     y="44.30901"
     x="508.25037"
     id="tspan991"
     sodipodi:role="line">SARS-CoV-2</tspan></text><text
   id="text997"
   y="110.51189"
   x="277.84354"
   style="font-size:48px;line-height:1.25;font-family:sans-serif;text-align:center;text-anchor:middle"
   xml:space="preserve"><tspan
     y="110.51189"
     x="277.84354"
     id="tspan995"
     sodipodi:role="line" /></text><text
   id="text1001"
   y="111.03316"
   x="253.34328"
   style="font-size:13.3333px;line-height:1.25;font-family:sans-serif;text-align:center;text-anchor:middle"
   xml:space="preserve"><tspan
     y="111.03316"
     x="253.34328"
     id="tspan999"
     sodipodi:role="line" /></text><text
   id="text1005"
   y="40.66003"
   x="378.97235"
   style="font-style:normal;font-variant:normal;font-weight:normal;font-stretch:normal;font-size:13.33329999999999949px;line-height:1.25;font-family:Avenir;-inkscape-font-specification:Avenir;text-align:center;text-anchor:middle;fill:#414042;fill-opacity:1;"
   xml:space="preserve"><tspan
     style="font-style:normal;font-variant:normal;font-weight:normal;font-stretch:normal;font-size:48px;font-family:'Avenir Next';-inkscape-font-specification:'Avenir Next';fill:#414042;fill-opacity:1;"
     y="40.66003"
     x="378.97235"
     id="tspan1003"
     sodipodi:role="line">:</tspan></text></svg>
